<?xml version="1.0" encoding="UTF-8"?>
<svg version="1.1" xmlns="http://www.w3.org/2000/svg" width="71" height="38">
<path d="M0 0 C23.43 0 46.86 0 71 0 C71 12.54 71 25.08 71 38 C47.57 38 24.14 38 0 38 C0 25.46 0 12.92 0 0 Z " fill="#4253B5" transform="translate(0,0)"/>
<path d="M0 0 C1.26328125 0.03609375 2.5265625 0.0721875 3.828125 0.109375 C5.27445313 0.17898438 5.27445313 0.17898438 6.75 0.25 C7.08 1.24 7.41 2.23 7.75 3.25 C3.13 3.58 -1.49 3.91 -6.25 4.25 C-7.31537205 8.72702364 -7.31537205 8.72702364 -7.25 11.25 C-2.63 11.25 1.99 11.25 6.75 11.25 C7.36875 9.80625 7.9875 8.3625 8.625 6.875 C9.81525538 4.09773744 10.59733158 2.40266842 12.75 0.25 C15.26064876 -0.0028288 17.61361315 -0.12024359 20.125 -0.125 C20.79789063 -0.14949219 21.47078125 -0.17398437 22.1640625 -0.19921875 C25.58770439 -0.21943711 27.42771429 0.00712549 30.19140625 2.08984375 C31.75 4.25 31.75 4.25 32.3125 7.1875 C31.75 10.25 31.75 10.25 30.0625 13.125 C24.91226724 16.4289229 19.70585939 15.64240655 13.75 15.25 C13.42 14.26 13.09 13.27 12.75 12.25 C17.7 11.92 22.65 11.59 27.75 11.25 C27.75 9.27 27.75 7.29 27.75 5.25 C26.63873341 3.91098208 26.63873341 3.91098208 23.80859375 4.15234375 C22.61363281 4.16394531 21.41867188 4.17554688 20.1875 4.1875 C18.98996094 4.19652344 17.79242188 4.20554687 16.55859375 4.21484375 C15.16833984 4.23224609 15.16833984 4.23224609 13.75 4.25 C13.36908203 5.18972656 13.36908203 5.18972656 12.98046875 6.1484375 C12.63628906 6.96570313 12.29210937 7.78296875 11.9375 8.625 C11.43283203 9.84316406 11.43283203 9.84316406 10.91796875 11.0859375 C9.75 13.25 9.75 13.25 6.75 15.25 C0.84844373 15.98964096 -4.46905303 16.39249428 -9.5625 13.125 C-11.55106368 9.7370767 -11.98865679 8.10742989 -11.25 4.25 C-8.00078595 -0.20262667 -5.32273299 -0.19713826 0 0 Z " fill="#ECEDF7" transform="translate(27.25,2.75)"/>
<path d="M0 0 C1.76150391 -0.02126953 1.76150391 -0.02126953 3.55859375 -0.04296875 C6.5625 0.1875 6.5625 0.1875 8.5625 2.1875 C8.3125 5.25 8.3125 5.25 7.5625 8.1875 C3.73160297 10.10294852 -1.04126116 9.19399572 -5.25 9.125 C-8.3348506 8.95717812 -8.3348506 8.95717812 -10.4375 10.1875 C-9.96199439 8.70715236 -9.48198784 7.22824979 -9 5.75 C-8.73316406 4.92628906 -8.46632812 4.10257813 -8.19140625 3.25390625 C-6.65722592 -0.95117871 -4.17371097 0.02285712 0 0 Z " fill="#5A69BF" transform="translate(47.4375,5.8125)"/>
<path d="M0 0 C1.39195915 4.17587745 -0.17676781 6.13474776 -2 10 C-3.93681161 10.08107583 -5.8745934 10.13922475 -7.8125 10.1875 C-8.89144531 10.22230469 -9.97039063 10.25710938 -11.08203125 10.29296875 C-14 10 -14 10 -15.90234375 8.65234375 C-17 7 -17 7 -16.75 4.375 C-16 2 -16 2 -15 1 C-12.47403741 0.76346477 -9.96892793 0.57826308 -7.4375 0.4375 C-6.37112305 0.37272461 -6.37112305 0.37272461 -5.28320312 0.30664062 C-3.52238088 0.20028223 -1.7612168 0.09961154 0 0 Z " fill="#5362BC" transform="translate(36,5)"/>
<path d="M0 0 C0.33 1.32 0.66 2.64 1 4 C-1.48434437 6.34290892 -2.77731593 6.97982934 -6.234375 7.29296875 C-7.39453125 7.25816406 -8.5546875 7.22335938 -9.75 7.1875 C-10.92046875 7.16042969 -12.0909375 7.13335938 -13.296875 7.10546875 C-14.18890625 7.07066406 -15.0809375 7.03585938 -16 7 C-16.33 6.01 -16.66 5.02 -17 4 C-12.05 3.67 -7.1 3.34 -2 3 C-2 2.34 -2 1.68 -2 1 C-1.34 0.67 -0.68 0.34 0 0 Z " fill="#E3E6F4" transform="translate(57,11)"/>
<path d="M0 0 C2.8203125 -0.29296875 2.8203125 -0.29296875 6.125 -0.1875 C7.76855469 -0.14689453 7.76855469 -0.14689453 9.4453125 -0.10546875 C10.28835937 -0.07066406 11.13140625 -0.03585937 12 0 C12.33 0.99 12.66 1.98 13 3 C8.05 3 3.1 3 -2 3 C-1.34 2.01 -0.68 1.02 0 0 Z " fill="#FAFBFD" transform="translate(22,3)"/>
<path d="M0 0 C4.29 0 8.58 0 13 0 C13 0.99 13 1.98 13 3 C8.71 3 4.42 3 0 3 C0 2.01 0 1.02 0 0 Z " fill="#FCFCFD" transform="translate(28,27)"/>
<path d="M0 0 C2.97 0 5.94 0 9 0 C9 0.99 9 1.98 9 3 C5.7 3 2.4 3 -1 3 C-0.67 2.01 -0.34 1.02 0 0 Z " fill="#E8EAF6" transform="translate(21,21)"/>
<path d="M0 0 C2.64 0 5.28 0 8 0 C8 0.99 8 1.98 8 3 C5.36 3 2.72 3 0 3 C0 2.01 0 1.02 0 0 Z " fill="#F4F5FB" transform="translate(51,27)"/>
<path d="M0 0 C2.31 0 4.62 0 7 0 C7 0.99 7 1.98 7 3 C4.69 3 2.38 3 0 3 C0 2.01 0 1.02 0 0 Z " fill="#E4E6F4" transform="translate(49,21)"/>
<path d="M0 0 C2.31 0 4.62 0 7 0 C7 0.99 7 1.98 7 3 C4.69 3 2.38 3 0 3 C0 2.01 0 1.02 0 0 Z " fill="#E4E6F4" transform="translate(39,21)"/>
<path d="M0 0 C1.98 0 3.96 0 6 0 C6 0.99 6 1.98 6 3 C4.02 3 2.04 3 0 3 C0 2.01 0 1.02 0 0 Z " fill="#FAFBFD" transform="translate(18,27)"/>
<path d="M0 0 C0.66 0.33 1.32 0.66 2 1 C2.625 3.5625 2.625 3.5625 3 6 C0.525 5.01 0.525 5.01 -2 4 C-1.34 2.68 -0.68 1.36 0 0 Z " fill="#848FCF" transform="translate(21,6)"/>
</svg>
