<svg version="1.1" id="Layer_1" xmlns="http://www.w3.org/2000/svg" xmlns:xlink="http://www.w3.org/1999/xlink" x="0px" y="0px"
	 width="100%" viewBox="0 0 200 200" enable-background="new 0 0 200 200" xml:space="preserve">
<path fill="#FE4019" opacity="1.000000" stroke="none" 
	d="
M2.000000,1.000000 
	C68.284760,1.000000 134.569519,1.000000 200.927139,1.000000 
	C200.927139,67.569214 200.927139,134.138519 200.927139,201.000000 
	C134.979385,201.000000 68.958351,201.000000 2.469536,200.531342 
	C2.001172,133.708450 2.000586,67.354225 2.000000,1.000000 
M125.153748,118.507523 
	C129.052887,128.775864 132.881760,139.072083 136.932404,149.280304 
	C137.493652,150.694733 139.095718,152.624619 140.309738,152.694839 
	C146.372040,153.045532 152.465622,152.855240 158.655487,152.855240 
	C158.585541,151.707031 158.677979,151.175171 158.509216,150.746017 
	C145.294510,117.142754 132.083755,83.537811 118.724525,49.992001 
	C118.255287,48.813717 116.303566,47.495857 115.027611,47.480179 
	C100.032272,47.295952 85.033394,47.291943 70.037788,47.454819 
	C68.936165,47.466789 66.971710,49.077026 66.908707,50.042149 
	C66.587669,54.959961 66.760521,59.910019 66.760521,65.281624 
	C78.177048,65.281624 88.982903,65.470627 99.776031,65.182724 
	C103.742584,65.076912 105.692986,66.262451 107.066650,70.057884 
	C112.845047,86.023499 118.941788,101.873894 125.153748,118.507523 
M89.721893,152.043625 
	C89.721893,146.466370 89.721893,140.889099 89.721893,135.315781 
	C72.242943,135.315781 55.209869,135.315781 38.254230,135.315781 
	C38.254230,141.332596 38.254230,146.896545 38.254230,152.668518 
	C55.455528,152.668518 72.241478,152.668518 89.721893,152.043625 
z"/>
<path fill="#FF532A" opacity="1.000000" stroke="none" 
	d="
M1.500000,1.000000 
	C2.000586,67.354225 2.001172,133.708450 2.000878,200.531342 
	C1.666666,199.670807 1.042673,198.341812 1.041704,197.012375 
	C0.994086,131.674942 1.000000,66.337471 1.500000,1.000000 
z"/>
<path fill="#FDF8F5" opacity="1.000000" stroke="none" 
	d="
M125.037872,118.136993 
	C118.941788,101.873894 112.845047,86.023499 107.066650,70.057884 
	C105.692986,66.262451 103.742584,65.076912 99.776031,65.182724 
	C88.982903,65.470627 78.177048,65.281624 66.760521,65.281624 
	C66.760521,59.910019 66.587669,54.959961 66.908707,50.042149 
	C66.971710,49.077026 68.936165,47.466789 70.037788,47.454819 
	C85.033394,47.291943 100.032272,47.295952 115.027611,47.480179 
	C116.303566,47.495857 118.255287,48.813717 118.724525,49.992001 
	C132.083755,83.537811 145.294510,117.142754 158.509216,150.746017 
	C158.677979,151.175171 158.585541,151.707031 158.655487,152.855240 
	C152.465622,152.855240 146.372040,153.045532 140.309738,152.694839 
	C139.095718,152.624619 137.493652,150.694733 136.932404,149.280304 
	C132.881760,139.072083 129.052887,128.775864 125.037872,118.136993 
z"/>
<path fill="#FDF9F6" opacity="1.000000" stroke="none" 
	d="
M89.374664,152.356079 
	C72.241478,152.668518 55.455528,152.668518 38.254230,152.668518 
	C38.254230,146.896545 38.254230,141.332596 38.254230,135.315781 
	C55.209869,135.315781 72.242943,135.315781 89.721893,135.315781 
	C89.721893,140.889099 89.721893,146.466370 89.374664,152.356079 
z"/>
</svg>