<?xml version="1.0" encoding="UTF-8"?>
<svg version="1.1" xmlns="http://www.w3.org/2000/svg" width="700" height="700">
<path d="M0 0 C2.28255595 1.70599338 4.43314365 3.49040565 6.5703125 5.375 C7.32054687 6.03113281 8.07078125 6.68726563 8.84375 7.36328125 C20.132598 17.90082367 28.55954175 33.26824608 29.76318359 48.87597656 C30.42263333 70.48194805 27.79531239 87.87988395 13.1328125 104.6875 C1.31869673 117.13806645 -13.29156219 127.32364059 -30.97827148 128.55200195 C-53.42845017 129.06200239 -71.1035512 125.79232467 -88.4296875 110.375 C-89.12835937 109.77042969 -89.82703125 109.16585937 -90.546875 108.54296875 C-99.26467508 100.48663599 -105.27256913 89.77801304 -108.4296875 78.375 C-108.4296875 77.715 -108.4296875 77.055 -108.4296875 76.375 C-121.68664822 76.43632267 -134.94341389 76.51350948 -148.20016289 76.61071491 C-154.35641027 76.65536228 -160.51259233 76.69463099 -166.66894531 76.72143555 C-172.61482256 76.74752446 -178.56044769 76.78796679 -184.50616837 76.83818626 C-186.76981587 76.85481714 -189.03350694 76.86635487 -191.29720688 76.87261391 C-194.47818929 76.88229598 -197.65853213 76.91040496 -200.83935547 76.94262695 C-201.76652878 76.94119186 -202.69370209 76.93975677 -203.64897156 76.9382782 C-214.91984041 77.09879056 -222.8925445 80.33722209 -231.1171875 87.93359375 C-239.5573715 96.73248557 -240.60243226 109.75368052 -242.40820312 121.25976562 C-245.1367125 137.36440178 -252.26275905 150.52923091 -263.4296875 162.375 C-261.98131892 165.62285681 -260.14332183 167.96026128 -257.8046875 170.625 C-247.47273306 183.45540887 -243.24416095 197.86716588 -240.703125 213.875 C-238.83957366 225.60064433 -236.3616529 235.86872615 -226.4296875 243.375 C-219.06093565 247.75303929 -213.13588804 249.49414848 -204.6015625 249.69140625 C-203.85255676 249.71218735 -203.10355103 249.73296844 -202.33184814 249.75437927 C-199.94788462 249.81957088 -197.56381438 249.87861783 -195.1796875 249.9375 C-193.55988496 249.98071416 -191.94009307 250.02432937 -190.3203125 250.06835938 C-186.35687918 250.17522096 -182.3933389 250.27657333 -178.4296875 250.375 C-178.23850342 249.71113281 -178.04731934 249.04726563 -177.8503418 248.36328125 C-174.62224991 237.34494207 -170.03401275 229.03310815 -162.4296875 220.375 C-161.82382812 219.67375 -161.21796875 218.9725 -160.59375 218.25 C-150.49015374 207.33641079 -134.85825392 199.23817757 -119.88110352 198.19799805 C-98.25009495 197.70660669 -80.26272791 200.53131892 -63.4296875 215.375 C-62.30433594 216.35919922 -62.30433594 216.35919922 -61.15625 217.36328125 C-49.867402 227.90082367 -41.44045825 243.26824608 -40.23681641 258.87597656 C-39.57736667 280.48194805 -42.20468761 297.87988395 -56.8671875 314.6875 C-68.68130327 327.13806645 -83.29156219 337.32364059 -100.97827148 338.55200195 C-123.42845017 339.06200239 -141.1035512 335.79232467 -158.4296875 320.375 C-159.12835938 319.77042969 -159.82703125 319.16585938 -160.546875 318.54296875 C-169.26467508 310.48663599 -175.27256913 299.77801304 -178.4296875 288.375 C-178.4296875 287.715 -178.4296875 287.055 -178.4296875 286.375 C-179.93982422 286.4064209 -179.93982422 286.4064209 -181.48046875 286.43847656 C-185.29737517 286.51212608 -189.11422232 286.55724209 -192.93164062 286.59472656 C-194.56846757 286.61456301 -196.20522645 286.64164112 -197.84179688 286.67675781 C-212.12957955 286.97515131 -225.80051429 285.5765619 -238.6796875 278.8125 C-239.33388672 278.47589355 -239.98808594 278.13928711 -240.66210938 277.79248047 C-256.63296332 269.13316137 -268.31588306 253.93904752 -273.546875 236.69140625 C-275.09842513 230.91063076 -276.30993238 225.07082992 -277.421875 219.19140625 C-277.59058105 218.308479 -277.75928711 217.42555176 -277.93310547 216.51586914 C-278.25478167 214.80516536 -278.56448505 213.09214908 -278.85986328 211.37670898 C-280.40733307 202.99981849 -283.79267091 194.98891917 -290.4296875 189.375 C-298.51904789 184.56042089 -304.89574435 182.21051654 -314.2578125 182.27734375 C-315.00681824 182.2787587 -315.75582397 182.28017365 -316.52752686 182.28163147 C-318.91162162 182.28721341 -321.29562128 182.29976255 -323.6796875 182.3125 C-325.29947781 182.31751734 -326.91926959 182.32207984 -328.5390625 182.32617188 C-332.50264062 182.33717692 -336.46614795 182.35442909 -340.4296875 182.375 C-340.75291992 183.18179199 -341.07615234 183.98858398 -341.40917969 184.81982422 C-341.84391602 185.8873291 -342.27865234 186.95483398 -342.7265625 188.0546875 C-343.15291992 189.10897949 -343.57927734 190.16327148 -344.01855469 191.24951172 C-351.9320683 208.77698599 -366.97967594 220.40770169 -384.4296875 227.375 C-402.42958714 233.87215479 -422.05146428 232.0293843 -439.265625 224.0625 C-457.08539935 214.87807849 -468.44401037 201.00347235 -475.4296875 182.375 C-488.6296875 182.375 -501.8296875 182.375 -515.4296875 182.375 C-517.9046875 188.315 -517.9046875 188.315 -520.4296875 194.375 C-531.78088943 212.27497228 -546.63467035 224.75470278 -567.56640625 229.84375 C-586.88675902 233.42842664 -605.8513419 229.91600388 -622.4296875 219.375 C-638.18700505 208.30039197 -648.59200407 193.07541654 -652.6796875 174.1875 C-655.94627906 153.25161775 -651.32908023 134.51953772 -639.26171875 117.27734375 C-629.20686329 104.33950319 -614.24738356 94.20154347 -598.01953125 90.7734375 C-575.57651819 88.28248284 -555.56135677 91.59152341 -537.4921875 105.6875 C-526.51338097 115.33304817 -518.46361007 127.24652723 -514.4296875 141.375 C-514.4296875 142.695 -514.4296875 144.015 -514.4296875 145.375 C-501.8896875 145.375 -489.3496875 145.375 -476.4296875 145.375 C-475.7696875 142.075 -475.1096875 138.775 -474.4296875 135.375 C-473.32113425 132.74052453 -472.25024048 130.40289824 -470.8671875 127.9375 C-470.51640137 127.30062256 -470.16561523 126.66374512 -469.80419922 126.00756836 C-460.00399992 108.7565326 -444.72380689 97.23844515 -425.8671875 91.375 C-405.548118 87.08263141 -386.01062955 90.82920633 -368.4296875 101.375 C-354.30747402 110.9591821 -344.12342029 124.93559773 -339.4296875 141.375 C-339.4296875 142.695 -339.4296875 144.015 -339.4296875 145.375 C-334.93070099 145.33036796 -330.43301012 145.26004968 -325.93481445 145.16748047 C-324.40953328 145.13952314 -322.88411403 145.11818513 -321.35864258 145.10400391 C-307.83090278 144.97081316 -296.51046461 143.29318393 -286.4296875 133.375 C-279.92594593 125.70058495 -278.69178972 116.0217558 -277.0534668 106.40771484 C-273.83121629 87.62308264 -267.9692676 73.19519316 -254.4296875 59.375 C-253.54216797 58.43333984 -253.54216797 58.43333984 -252.63671875 57.47265625 C-248.55438436 53.49846317 -243.94548971 50.80322536 -238.9296875 48.1875 C-238.33212646 47.8663623 -237.73456543 47.54522461 -237.11889648 47.21435547 C-221.92710298 39.691356 -206.21445027 39.82858042 -189.6796875 39.984375 C-187.32601405 39.99185172 -184.97233429 39.99753787 -182.61865234 40.00152588 C-176.47674842 40.01666952 -170.33523353 40.05585232 -164.19348145 40.1003418 C-157.9050828 40.14153975 -151.61662021 40.15958889 -145.328125 40.1796875 C-133.02847656 40.22235901 -120.72911461 40.29047115 -108.4296875 40.375 C-108.22595016 39.68575439 -108.02221283 38.99650879 -107.81230164 38.28637695 C-107.54383926 37.38363037 -107.27537689 36.48088379 -106.9987793 35.55078125 C-106.60036079 34.20753784 -106.60036079 34.20753784 -106.19389343 32.8371582 C-103.47790956 24.08666088 -98.41768971 17.19280027 -92.4296875 10.375 C-91.52089844 9.323125 -91.52089844 9.323125 -90.59375 8.25 C-67.56246014 -16.62768019 -27.30792485 -18.26382112 0 0 Z M-67.2421875 36.125 C-73.23035971 43.41917729 -76.05522483 52.41589715 -75.2109375 61.80859375 C-73.61448757 71.64825147 -69.30957273 80.15987925 -61.4296875 86.375 C-53.35401609 92.02947384 -44.72458395 94.27584481 -34.9296875 92.8984375 C-24.50875926 90.71655565 -16.48689556 85.41554913 -10.50390625 76.5078125 C-5.1522032 66.67294055 -4.27513203 57.9697472 -7.359375 47.23046875 C-10.59721689 38.59228474 -16.6724254 31.48014628 -24.8125 27.08984375 C-40.39172327 20.27698593 -55.588206 23.90313381 -67.2421875 36.125 Z M-609.4296875 137.375 C-616.15011698 146.32597888 -618.5290729 155.25589958 -617.4296875 166.375 C-615.25539895 176.04863111 -610.20327944 183.9081361 -602.1796875 189.75 C-593.3872179 195.09094177 -584.48217094 196.38549669 -574.4296875 194.375 C-564.11075178 191.21747077 -556.49410543 184.84120173 -551.4296875 175.375 C-547.33740054 166.85068905 -547.08532203 157.64615867 -549.9921875 148.6875 C-554.06469264 138.75001386 -560.54391669 132.47840643 -569.8671875 127.5625 C-583.94409317 122.78787702 -599.14632704 127.03265277 -609.4296875 137.375 Z M-434.4296875 137.375 C-441.15011698 146.32597888 -443.5290729 155.25589958 -442.4296875 166.375 C-440.25539895 176.04863111 -435.20327944 183.9081361 -427.1796875 189.75 C-418.3872179 195.09094177 -409.48217094 196.38549669 -399.4296875 194.375 C-389.11075178 191.21747077 -381.49410543 184.84120173 -376.4296875 175.375 C-372.33740054 166.85068905 -372.08532203 157.64615867 -374.9921875 148.6875 C-379.06469264 138.75001386 -385.54391669 132.47840643 -394.8671875 127.5625 C-408.94409317 122.78787702 -424.14632704 127.03265277 -434.4296875 137.375 Z M-137.2421875 246.125 C-143.23035971 253.41917729 -146.05522483 262.41589715 -145.2109375 271.80859375 C-143.61448757 281.64825147 -139.30957273 290.15987925 -131.4296875 296.375 C-123.35401609 302.02947384 -114.72458395 304.27584481 -104.9296875 302.8984375 C-94.50875926 300.71655565 -86.48689556 295.41554913 -80.50390625 286.5078125 C-75.1522032 276.67294055 -74.27513203 267.9697472 -77.359375 257.23046875 C-80.59721689 248.59228474 -86.6724254 241.48014628 -94.8125 237.08984375 C-110.39172327 230.27698593 -125.588206 233.90313381 -137.2421875 246.125 Z " fill="#EA4B71" transform="translate(661.4296875,186.625)"/>
</svg>
